<svg version="1.0" xmlns="http://www.w3.org/2000/svg" width="600.000000pt" height="646.000000pt" viewBox="0 0 600.000000 646.000000" preserveAspectRatio="xMidYMid meet" style="width: 1076.6px; height: auto;"> <g transform="translate(0.000000,646.000000) scale(0.100000,-0.100000)" fill="#000000" stroke="none" class=""> <path d="M2470 6443 c-100 -9 -418 -96 -535 -146 -94 -40 -317 -149 -385 -188 -142 -82 -388 -273 -541 -421 -74 -71 -249 -268 -300 -338 -231 -313 -399 -623 -499 -920 -79 -234 -139 -477 -156 -640 -4 -30 -13 -80 -20 -110 -24 -91 -30 -666 -10 -860 20 -190 51 -382 75 -465 5 -16 16 -55 25 -85 25 -88 96 -312 111 -350 62 -161 135 -316 238 -500 47 -85 198 -305 274 -400 100 -125 343 -370 463 -467 185 -149 383 -273 579 -363 142 -66 256 -106 391 -138 129 -31 147 -34 257 -41 78 -4 104 -3 108 7 3 9 -12 12 -59 12 -35 0 -88 5 -117 11 -30 6 -70 13 -89 15 -93 12 -239 55 -388 115 -129 53 -343 163 -350 181 -2 4 -8 8 -14 8 -6 0 -26 11 -44 25 -18 14 -38 25 -44 25 -6 0 -13 7 -16 15 -4 8 -10 15 -15 15 -18 0 -108 68 -101 75 4 5 2 5 -4 2 -6 -4 -22 5 -35 19 -13 15 -34 30 -47 35 -14 5 -20 14 -16 21 4 6 3 8 -4 4 -16 -9 -337 308 -327 324 5 8 4 11 -2 7 -10 -6 -44 27 -111 108 -12 15 -22 29 -22 33 0 3 -11 17 -24 31 -33 36 -96 129 -96 141 0 6 -4 9 -9 6 -5 -3 -11 2 -15 12 -3 9 -15 31 -26 47 -11 17 -23 37 -27 45 -3 8 -10 17 -13 20 -7 5 -64 110 -132 239 -15 29 -25 59 -21 65 3 6 3 8 -2 4 -5 -5 -28 36 -52 90 -24 53 -48 105 -54 116 -6 10 -6 16 -1 12 6 -3 2 11 -8 32 -27 55 -131 393 -124 403 3 5 1 9 -4 9 -4 0 -18 55 -31 123 -12 67 -27 142 -31 167 -30 156 -52 572 -39 739 4 53 10 139 12 191 3 52 8 102 11 110 6 17 16 70 23 120 13 103 57 306 67 312 8 6 7 8 -1 8 -9 0 -10 7 -4 23 5 12 15 45 22 72 7 28 17 59 23 70 5 11 11 29 13 40 4 22 31 101 64 185 11 30 23 65 26 78 3 12 10 22 15 22 5 0 7 4 4 8 -8 13 69 157 83 154 7 -1 10 2 6 8 -3 6 -11 8 -16 4 -5 -3 4 17 21 44 16 27 30 54 30 60 0 6 3 12 8 14 10 4 38 53 63 111 12 26 25 47 30 47 5 0 9 5 9 11 0 9 35 63 73 114 4 5 32 46 63 90 31 44 63 86 73 93 9 7 16 18 16 25 1 7 7 11 14 9 7 -1 10 1 7 6 -4 7 26 44 114 138 22 23 36 44 33 48 -4 3 1 6 11 6 9 0 15 4 12 9 -7 10 28 43 37 36 4 -3 5 -2 3 1 -6 8 64 79 78 79 6 1 10 6 9 13 -2 7 1 12 7 12 5 0 32 21 60 48 29 26 59 51 68 56 9 5 26 18 37 29 11 11 45 38 75 61 30 22 57 44 58 49 2 4 9 7 16 7 7 0 26 11 42 25 16 14 37 28 47 31 9 3 17 10 17 15 0 5 6 9 14 9 7 0 25 9 40 21 14 11 26 18 26 14 0 -3 17 6 37 20 21 14 43 25 50 25 7 0 13 4 13 9 0 10 39 27 53 23 4 -1 7 2 7 8 0 6 8 10 18 10 10 0 22 4 28 8 5 5 34 19 64 32 30 12 73 31 95 40 102 46 385 123 510 139 113 15 244 21 249 12 3 -4 -21 -21 -52 -37 -49 -25 -156 -98 -189 -128 -6 -6 -42 -38 -79 -71 -37 -33 -72 -66 -78 -73 -6 -8 -27 -31 -46 -53 -61 -67 -68 -77 -75 -98 -3 -12 -11 -18 -17 -15 -6 4 -8 3 -5 -3 4 -5 -3 -19 -13 -31 -11 -12 -20 -26 -20 -32 0 -6 -7 -13 -15 -16 -8 -4 -13 -9 -10 -13 2 -4 -8 -21 -23 -38 -16 -16 -26 -36 -24 -43 3 -8 0 -10 -8 -5 -8 5 -11 4 -6 -3 3 -6 2 -13 -4 -17 -11 -7 -90 -168 -90 -184 0 -6 -4 -11 -10 -11 -5 0 -10 -9 -10 -21 0 -11 -6 -33 -14 -47 -8 -15 -19 -47 -26 -72 -7 -25 -17 -56 -22 -70 -12 -29 -36 -131 -42 -175 -7 -57 -20 -320 -19 -380 3 -120 38 -390 53 -410 4 -5 11 -26 15 -45 3 -19 13 -50 21 -68 8 -18 12 -37 9 -42 -3 -6 -1 -10 4 -10 6 0 11 -7 11 -16 0 -9 9 -35 21 -58 63 -123 74 -143 91 -165 10 -13 15 -27 12 -32 -3 -5 2 -12 10 -15 9 -3 16 -10 16 -15 0 -4 14 -28 30 -51 17 -24 41 -59 54 -78 13 -19 33 -44 45 -54 11 -11 21 -25 21 -33 0 -7 5 -13 10 -13 6 0 10 -4 10 -10 0 -5 8 -18 18 -28 42 -45 66 -78 64 -87 -2 -5 0 -7 3 -3 4 4 17 -5 29 -20 35 -45 39 -51 83 -99 24 -25 40 -49 38 -54 -3 -4 0 -11 6 -15 8 -5 10 -2 5 7 -4 8 3 1 16 -16 12 -16 31 -36 40 -44 10 -9 18 -18 18 -22 0 -4 17 -24 38 -46 37 -40 89 -99 143 -163 41 -49 108 -126 147 -169 18 -20 46 -49 61 -66 69 -76 112 -135 106 -144 -3 -7 0 -8 9 -5 9 3 16 2 16 -4 0 -5 15 -27 34 -48 19 -21 32 -42 30 -46 -2 -3 5 -9 15 -13 13 -4 18 -11 14 -22 -4 -11 -2 -14 5 -9 7 4 12 3 12 -3 0 -5 14 -25 30 -43 17 -18 30 -36 30 -40 0 -8 21 -36 48 -64 7 -8 10 -14 6 -14 -4 0 2 -10 13 -22 36 -41 83 -119 77 -129 -3 -5 0 -8 6 -7 6 2 30 -33 53 -77 23 -44 44 -82 47 -85 13 -13 41 -78 43 -97 0 -12 5 -19 9 -17 4 3 8 -1 8 -8 0 -7 13 -47 29 -88 38 -97 57 -167 71 -259 6 -41 13 -78 16 -82 5 -9 5 -380 0 -419 -3 -14 -7 -38 -11 -55 -3 -16 -8 -43 -11 -60 -8 -47 -35 -159 -42 -170 -4 -5 -7 -14 -8 -20 -1 -5 -12 -31 -23 -57 -12 -26 -22 -50 -21 -53 0 -5 -42 -84 -76 -142 -10 -18 -22 -33 -26 -33 -5 0 -8 -5 -8 -11 0 -10 -47 -73 -83 -111 -7 -7 -27 -30 -44 -51 -18 -21 -33 -35 -33 -32 0 4 -17 -11 -39 -32 -66 -65 -179 -143 -211 -146 -10 -1 -17 -4 -15 -8 15 -23 -248 -99 -344 -99 -33 0 -42 -3 -31 -10 10 -6 -3 -10 -45 -13 -33 -2 -13 -2 45 0 58 2 139 11 180 19 83 17 227 81 317 141 85 56 242 211 313 309 99 135 185 337 221 514 25 127 36 395 20 525 -52 438 -274 834 -797 1425 -161 182 -370 423 -493 570 -62 74 -123 146 -135 160 -122 144 -282 410 -341 565 -71 189 -112 466 -101 685 18 389 98 635 309 950 135 203 270 339 457 464 129 85 130 86 130 101 0 12 -21 15 -117 13 -65 0 -134 -3 -153 -5z" class=""></path> <path d="M3202 6426 c-178 -85 -342 -277 -446 -521 -53 -124 -70 -180 -102 -335 -25 -121 -28 -156 -29 -340 0 -261 21 -394 98 -605 106 -295 262 -512 636 -886 113 -113 298 -286 411 -384 526 -459 761 -711 914 -980 54 -95 150 -313 167 -379 36 -139 50 -249 51 -406 2 -179 -12 -283 -58 -440 -84 -284 -176 -441 -369 -636 -135 -136 -260 -233 -373 -290 -113 -57 -146 -94 -85 -94 33 0 329 121 430 175 98 53 252 152 360 231 132 98 419 390 509 519 162 232 227 336 310 495 104 200 242 590 292 830 62 290 74 421 75 780 1 331 -6 426 -49 690 -53 322 -211 776 -362 1040 -216 377 -440 658 -727 910 -303 267 -616 448 -975 566 -178 59 -277 76 -460 81 -160 4 -167 3 -218 -21z m383 -11 c50 -7 102 -18 116 -24 15 -5 29 -7 32 -5 3 3 22 -2 43 -11 22 -9 48 -18 59 -21 39 -7 180 -59 183 -66 2 -5 11 -8 20 -8 10 0 30 -7 46 -15 15 -8 35 -15 43 -15 8 0 11 -4 8 -10 -3 -6 4 -10 17 -10 14 0 33 -7 44 -15 10 -8 27 -15 38 -15 12 0 16 -5 12 -16 -3 -9 -2 -12 4 -9 20 12 257 -124 243 -140 -5 -4 -3 -5 4 -1 7 4 21 -2 32 -13 10 -10 28 -22 38 -25 11 -3 28 -14 39 -24 10 -10 36 -30 58 -44 82 -56 215 -177 387 -353 117 -120 201 -216 195 -222 -2 -2 10 -18 25 -34 16 -17 29 -38 29 -47 0 -8 3 -12 6 -9 7 7 44 -36 44 -51 0 -6 3 -12 8 -14 11 -5 52 -66 52 -78 0 -5 4 -10 9 -10 8 0 24 -37 22 -53 -1 -4 3 -6 9 -5 9 3 22 -16 80 -122 17 -30 41 -74 55 -98 13 -23 25 -53 27 -65 2 -12 9 -21 16 -19 7 1 12 -10 12 -29 0 -17 4 -28 10 -24 6 3 10 0 10 -7 0 -8 9 -31 20 -52 10 -22 17 -42 15 -46 -3 -4 1 -13 9 -19 7 -6 21 -37 31 -69 10 -31 21 -61 25 -67 4 -5 11 -29 15 -52 4 -24 11 -45 15 -48 5 -3 12 -26 16 -50 3 -25 10 -45 14 -45 5 0 11 -15 15 -32 4 -18 15 -60 25 -93 18 -57 58 -255 65 -320 2 -16 6 -41 10 -55 3 -14 9 -68 12 -120 3 -52 10 -104 16 -115 13 -23 17 -440 6 -580 -11 -140 -26 -279 -32 -295 -3 -8 -8 -38 -10 -67 -3 -28 -12 -82 -20 -120 -33 -146 -38 -169 -48 -203 -6 -19 -15 -53 -20 -75 -6 -22 -14 -44 -20 -50 -5 -5 -9 -18 -9 -30 0 -12 -7 -30 -15 -41 -8 -10 -15 -26 -15 -35 0 -23 -61 -202 -73 -218 -7 -7 -12 -19 -12 -25 0 -18 -38 -96 -47 -96 -4 0 -8 -14 -8 -31 0 -16 -4 -28 -9 -24 -5 3 -13 -5 -16 -17 -15 -51 -109 -226 -118 -221 -6 3 -7 1 -3 -5 4 -6 -6 -26 -21 -43 -15 -17 -27 -35 -26 -39 1 -3 -14 -24 -32 -46 -19 -21 -35 -43 -35 -47 0 -5 -11 -23 -25 -41 -14 -18 -25 -37 -25 -42 0 -5 -8 -17 -17 -26 -26 -24 -38 -40 -46 -61 -4 -11 -12 -15 -19 -11 -7 4 -10 4 -6 -1 9 -10 -10 -47 -21 -41 -4 3 -15 -9 -25 -25 -10 -17 -24 -28 -30 -26 -7 3 -13 0 -13 -7 0 -19 -34 -66 -44 -60 -5 3 -8 2 -7 -3 4 -11 -122 -139 -134 -135 -5 1 -7 -1 -4 -6 6 -10 -93 -98 -106 -94 -5 1 -7 -2 -3 -7 7 -12 -29 -33 -40 -23 -5 4 -5 2 -1 -5 4 -7 -2 -16 -13 -22 -11 -6 -26 -17 -33 -23 -35 -33 -79 -58 -90 -52 -7 4 -8 3 -4 -4 4 -7 1 -12 -9 -12 -8 0 -18 -7 -21 -15 -4 -8 -10 -12 -15 -9 -5 3 -9 1 -9 -4 0 -5 -13 -15 -30 -22 -16 -7 -30 -16 -30 -20 0 -9 -117 -70 -123 -64 -3 3 -8 0 -13 -7 -5 -8 -3 -10 6 -4 9 5 11 4 6 -3 -4 -7 -16 -12 -26 -12 -10 0 -22 -4 -25 -10 -3 -5 -15 -10 -25 -10 -10 0 -25 -6 -32 -13 -7 -7 -29 -19 -48 -26 -19 -7 -49 -19 -65 -26 -108 -48 -133 -57 -155 -61 -16 -3 -3 9 35 31 33 19 66 35 73 35 6 0 12 4 12 8 0 5 17 18 38 30 32 18 73 50 157 120 11 9 24 15 28 14 5 -1 6 1 3 6 -5 8 28 42 41 42 3 0 28 22 55 50 27 27 54 50 61 50 8 0 7 4 -3 10 -13 8 -12 10 3 10 10 0 16 4 13 9 -4 5 -3 11 2 13 10 4 82 93 82 102 0 4 5 12 10 19 41 48 50 62 50 74 0 7 4 13 10 13 5 0 9 3 8 8 -1 4 15 43 36 87 20 44 44 103 53 130 9 28 19 52 22 55 3 3 8 18 9 33 2 16 10 44 18 62 8 19 14 48 14 64 0 16 4 33 10 36 6 3 10 23 10 43 0 20 5 73 12 119 9 63 9 121 0 255 -6 95 -16 187 -21 203 -5 17 -16 53 -25 81 -9 29 -16 58 -16 65 0 8 -10 32 -21 54 -12 22 -22 42 -22 45 1 7 -16 51 -32 85 -55 119 -81 171 -88 176 -4 3 -9 15 -10 27 0 11 -4 19 -8 16 -7 -4 -42 43 -45 62 -1 6 -12 22 -25 36 -59 64 -100 124 -91 133 4 4 2 5 -5 3 -13 -4 -70 57 -79 84 -3 10 -8 16 -12 14 -4 -2 -13 2 -20 10 -7 8 -10 14 -7 14 4 0 -21 27 -54 61 -34 34 -58 66 -54 72 3 5 2 7 -4 4 -6 -4 -31 13 -56 36 -25 23 -81 75 -125 116 -45 41 -79 79 -76 83 3 5 2 8 -3 7 -15 -4 -43 13 -37 22 3 5 0 9 -6 9 -6 0 -35 23 -63 50 -28 28 -55 50 -59 50 -6 0 -61 48 -145 128 -19 17 -39 32 -43 32 -5 0 -10 3 -12 8 -1 4 -57 56 -123 116 -127 116 -150 138 -123 117 9 -7 -43 48 -116 121 -72 73 -145 151 -161 173 -17 21 -46 55 -65 74 -19 18 -28 31 -20 27 8 -4 5 1 -7 12 -13 11 -23 23 -23 27 0 4 -15 24 -32 45 -47 54 -68 82 -79 105 -5 11 -18 34 -29 50 -32 50 -110 210 -110 226 0 8 -5 20 -12 27 -6 6 -13 17 -15 24 -6 27 -42 153 -44 156 -1 1 -2 5 -3 10 -1 4 -6 23 -11 42 -4 19 -10 46 -11 60 -2 14 -10 68 -18 120 -9 52 -16 133 -16 180 0 110 19 323 29 330 4 3 11 30 15 60 16 122 79 317 126 390 6 8 13 22 16 30 3 8 10 22 15 30 5 8 12 23 15 33 4 9 9 17 13 17 4 0 15 14 25 32 22 36 41 61 73 95 12 13 20 23 18 23 -2 0 16 20 39 45 24 25 49 45 55 45 6 0 11 4 11 9 0 4 23 22 51 39 27 18 47 26 44 19 -4 -6 1 -3 9 7 9 11 16 17 16 13 0 -4 10 -1 23 6 12 8 40 15 62 16 21 1 42 4 45 7 6 7 125 -3 245 -21z" class=""></path> <path d="M3332 6294 c-19 -6 -37 -15 -40 -21 -4 -5 -27 -23 -52 -38 -24 -16 -60 -45 -80 -66 -88 -94 -100 -109 -100 -120 0 -7 -3 -10 -6 -6 -4 3 -18 -16 -31 -43 -14 -29 -29 -47 -35 -43 -7 4 -8 1 -4 -6 5 -7 2 -20 -6 -29 -8 -9 -23 -39 -33 -67 -10 -27 -23 -57 -30 -65 -6 -8 -20 -42 -30 -75 -10 -33 -21 -64 -25 -70 -7 -9 -19 -72 -38 -195 -9 -57 -8 -378 1 -445 25 -181 28 -195 68 -280 5 -11 10 -29 12 -40 10 -63 160 -332 222 -399 14 -16 27 -37 28 -47 1 -10 4 -17 7 -16 7 3 50 -41 50 -50 0 -5 21 -30 45 -56 25 -26 45 -51 45 -54 0 -4 46 -52 103 -107 56 -55 114 -116 130 -134 15 -19 27 -31 27 -27 0 4 24 -17 53 -46 58 -60 194 -182 208 -187 5 -2 9 -11 9 -19 0 -9 3 -14 6 -10 4 3 12 1 19 -6 7 -7 32 -28 55 -47 24 -19 53 -44 66 -55 12 -11 50 -45 84 -75 100 -88 119 -108 112 -115 -4 -4 -2 -5 4 -3 10 3 37 -21 184 -163 41 -40 79 -72 83 -70 5 1 6 -3 2 -9 -3 -6 4 -14 17 -19 13 -6 20 -10 16 -10 -3 -1 9 -17 28 -36 19 -20 32 -40 29 -46 -4 -5 -3 -8 2 -7 13 5 46 -24 83 -72 18 -25 42 -53 52 -63 10 -10 15 -24 12 -30 -4 -7 -4 -9 1 -5 8 7 42 -29 43 -46 0 -5 7 -13 16 -18 9 -5 16 -18 16 -29 0 -11 4 -18 9 -14 9 5 27 -32 23 -48 -1 -5 2 -6 8 -2 5 3 10 1 10 -6 0 -7 11 -26 24 -44 36 -46 156 -293 156 -319 0 -12 4 -26 10 -32 12 -12 52 -159 52 -191 0 -13 4 -23 8 -23 4 0 10 -19 13 -42 3 -24 9 -54 13 -68 14 -47 17 -482 4 -525 -7 -22 -13 -65 -15 -95 -1 -30 -8 -56 -14 -58 -6 -2 -9 -8 -5 -13 7 -11 44 -12 44 0 0 4 11 20 25 35 14 15 25 32 25 37 0 6 6 7 13 3 6 -4 9 -4 5 1 -7 7 18 50 52 86 8 9 25 28 38 42 12 14 22 32 22 41 0 9 5 16 10 16 6 0 15 10 20 22 6 13 19 37 30 53 11 17 23 38 26 48 4 9 10 17 15 17 5 0 9 6 9 14 0 7 6 19 14 25 8 7 17 23 20 37 4 14 17 42 30 63 13 20 32 60 42 89 10 29 22 52 26 52 3 0 9 13 13 30 4 16 11 32 16 35 5 4 9 15 9 27 0 11 6 32 14 46 8 15 22 47 31 72 10 25 21 54 25 65 36 89 113 409 126 520 3 28 10 75 15 105 42 236 41 800 -1 1025 -5 28 -12 67 -14 87 -3 21 -11 59 -16 84 -6 26 -11 62 -12 80 -1 19 -4 34 -8 34 -4 0 -11 24 -17 53 -6 28 -21 86 -32 127 -12 41 -24 86 -27 100 -3 14 -9 27 -15 28 -5 2 -9 12 -9 23 0 11 -9 37 -20 58 -10 21 -16 41 -13 45 4 3 1 6 -5 6 -6 0 -13 13 -17 30 -4 16 -20 57 -36 91 -17 34 -28 63 -25 66 2 3 -4 13 -15 24 -11 11 -17 24 -14 29 3 4 2 10 -2 12 -5 1 -30 48 -58 103 -27 55 -56 106 -62 113 -13 13 -17 28 -14 45 1 5 -4 5 -10 1 -9 -5 -10 -2 -6 10 4 9 3 15 -2 11 -5 -3 -20 12 -32 32 -13 21 -26 40 -29 43 -3 3 -32 46 -65 95 -33 50 -67 99 -76 110 -52 63 -103 123 -123 145 -12 14 -25 33 -29 43 -4 10 -12 15 -17 12 -6 -4 -9 -3 -8 2 3 11 -201 212 -296 290 -15 13 -25 27 -22 31 3 5 -1 9 -9 9 -8 0 -11 -5 -8 -11 4 -6 -2 -4 -12 4 -37 29 -53 48 -47 56 4 4 2 4 -5 0 -7 -4 -21 1 -31 11 -37 35 -60 51 -66 46 -3 -4 -6 -1 -6 5 0 7 -7 12 -15 12 -7 0 -19 8 -24 18 -6 9 -11 13 -11 9 0 -4 -27 10 -59 33 -33 22 -65 40 -70 40 -6 0 -11 4 -11 9 0 5 -12 14 -27 20 -52 20 -112 58 -105 66 4 5 2 5 -4 2 -6 -4 -48 9 -92 28 -44 19 -87 35 -97 35 -10 0 -13 5 -9 12 4 6 3 8 -3 5 -6 -4 -44 4 -86 18 -118 37 -386 88 -437 83 -14 -1 -40 -7 -58 -14z m181 -24 c230 -34 492 -120 679 -226 646 -364 1140 -961 1404 -1697 14 -37 28 -76 33 -85 29 -58 106 -427 122 -587 5 -55 14 -136 19 -180 6 -44 10 -169 10 -279 0 -289 -37 -608 -98 -851 -19 -77 -37 -153 -40 -170 -2 -16 -8 -34 -12 -40 -4 -5 -13 -28 -20 -50 -63 -201 -213 -518 -322 -680 -78 -115 -172 -235 -179 -227 -4 4 -3 30 3 57 6 28 11 154 12 280 1 215 -1 238 -27 358 -52 244 -123 424 -248 628 -181 297 -369 494 -999 1043 -166 145 -468 441 -560 550 -187 220 -322 446 -390 652 -39 119 -60 282 -60 471 0 247 26 382 111 570 97 215 207 352 346 433 74 44 96 47 216 30z" class=""></path>        <path d="M225 3744 c-3 -19 -12 -92 -20 -162 -16 -143 -20 -714 -6 -741 5 -9 12 -61 16 -115 3 -53 10 -108 15 -120 6 -18 21 -111 23 -143 0 -5 7 -30 17 -58 9 -27 15 -56 13 -62 -3 -7 0 -13 6 -13 6 0 11 -8 11 -19 0 -22 26 -113 46 -159 8 -18 14 -43 14 -55 0 -12 6 -34 14 -49 8 -14 19 -43 26 -65 7 -21 25 -66 41 -101 16 -35 29 -66 29 -69 0 -11 34 -79 47 -94 8 -9 15 -26 16 -38 1 -11 4 -21 7 -21 3 0 14 -19 25 -42 10 -24 30 -61 44 -83 15 -22 30 -47 34 -55 4 -8 15 -27 25 -41 84 -126 113 -169 126 -182 8 -8 12 -17 9 -21 -4 -3 0 -6 7 -6 7 0 11 -3 7 -6 -3 -3 4 -16 17 -28 12 -11 27 -28 32 -37 13 -23 73 -95 117 -141 21 -22 34 -44 31 -51 -4 -7 -4 -9 0 -5 12 10 88 -71 80 -85 -4 -7 -4 -9 1 -5 10 9 54 -25 77 -60 11 -17 18 -21 18 -12 1 8 8 3 16 -12 8 -16 19 -28 25 -28 5 0 24 -13 42 -29 27 -25 98 -86 157 -134 8 -7 17 -12 20 -12 3 0 12 -6 20 -12 109 -91 417 -259 565 -308 365 -121 642 -139 832 -53 26 12 52 20 56 19 5 -1 6 3 2 9 -3 5 -2 10 3 10 5 0 43 31 86 70 42 38 74 70 71 70 -3 0 6 12 20 27 14 15 25 32 25 37 0 5 6 17 14 25 18 22 76 130 76 143 0 5 6 24 14 41 8 18 27 82 42 142 37 148 46 424 19 574 -20 111 -53 229 -66 237 -5 3 -9 15 -9 27 0 12 -7 31 -15 41 -8 11 -15 26 -15 33 0 8 -5 19 -10 26 -6 7 -25 35 -43 63 -18 28 -40 58 -49 68 -10 10 -18 21 -18 25 0 4 -20 29 -45 55 -25 27 -42 53 -38 59 3 6 1 7 -5 3 -7 -4 -12 -2 -12 4 0 6 -4 8 -10 5 -5 -3 -10 -3 -10 2 0 11 -76 93 -86 93 -5 0 -36 24 -69 53 -33 29 -96 77 -140 107 -44 29 -83 58 -87 64 -4 6 -8 8 -8 4 0 -4 -30 13 -67 38 -38 24 -77 44 -88 44 -17 0 -18 2 -5 11 13 9 12 10 -2 5 -10 -3 -20 -1 -23 5 -6 9 -36 24 -135 66 -19 9 -53 24 -74 34 -22 11 -45 19 -52 19 -7 0 -19 7 -28 15 -8 9 -17 14 -18 13 -4 -4 -52 16 -228 95 -19 8 -60 25 -90 37 -77 30 -118 48 -169 73 -24 12 -51 22 -61 24 -29 4 -160 66 -160 75 0 5 -5 6 -10 3 -6 -4 -21 0 -33 8 -12 7 -62 31 -112 52 -49 21 -95 42 -102 47 -6 5 -51 30 -100 55 -48 25 -102 56 -120 69 -17 13 -35 24 -38 24 -4 0 -32 19 -63 43 -32 23 -74 53 -94 67 -20 13 -34 28 -32 32 3 5 1 7 -4 6 -6 -2 -35 23 -66 56 -31 32 -56 56 -56 52 0 -4 -7 0 -16 8 -8 9 -12 21 -8 27 4 8 3 9 -4 5 -7 -4 -12 -4 -12 1 0 4 -16 24 -35 44 -19 20 -31 39 -28 43 4 3 1 6 -6 6 -6 0 -43 49 -82 109 -77 120 -103 140 -114 85z m70 -61 c79 -137 267 -348 396 -446 222 -167 452 -282 1104 -554 61 -25 154 -65 207 -89 53 -24 119 -52 145 -63 174 -69 424 -211 563 -320 36 -28 88 -69 116 -90 63 -49 198 -195 260 -281 226 -318 269 -808 107 -1221 -56 -142 -207 -321 -318 -377 -74 -36 -183 -62 -267 -62 -94 0 -278 28 -407 61 -377 98 -767 340 -1092 677 -369 382 -619 813 -767 1327 -64 222 -84 323 -114 585 -17 147 -17 554 0 730 19 195 22 201 67 123z" class=""></path>             <path d="M2578 23 c12 -2 32 -2 45 0 12 2 2 4 -23 4 -25 0 -35 -2 -22 -4z"></path> </g> </svg>